<svg class="logo" width="15" height="12" viewBox="0 0 15 12" fill="none" xmlns="http://www.w3.org/2000/svg">
<path opacity="0.6" fill-rule="evenodd" clip-rule="evenodd" d="M0 1.55556C0 0.696446 0.758228 0 1.69355 0H13.3065C14.2418 0 15 0.696446 15 1.55556V10.4444C15 11.3036 14.2418 12 13.3065 12H1.69355C0.758228 12 0 11.3036 0 10.4444V1.55556ZM1.69355 1.33333C1.55993 1.33333 1.45161 1.43283 1.45161 1.55556V2.94645L7.5 6.12106L13.5484 2.94645V1.55556C13.5484 1.43283 13.4401 1.33333 13.3065 1.33333H1.69355ZM13.5484 4.48212L7.5 7.65672L1.45161 4.48212V10.4444C1.45161 10.5672 1.55993 10.6667 1.69355 10.6667H13.3065C13.4401 10.6667 13.5484 10.5672 13.5484 10.4444V4.48212Z" fill="white"/>
</svg>
