<svg width="71" height="13" viewBox="0 0 71 13" fill="none" xmlns="http://www.w3.org/2000/svg">
<g opacity="0.6">
<path d="M7.06177 3.15582L7.45461 0.739258H9.5972L9.18897 3.15582H10.9089V5.63797H8.80021L8.44442 7.67792H10.3832V10.1604H8.03305L7.59184 12.8315H5.46402L5.90522 10.1604H3.84774L3.4081 12.8315H1.24196L1.70138 10.1604H0V7.67792H2.09454L2.45033 5.63797H0.526304V3.15582H2.85762L3.26585 0.739258H5.39367L5.00429 3.15582H7.06177ZM6.31188 7.67918L6.65291 5.63923H4.59668L4.25565 7.67918H6.31188Z" fill="white"/>
<path d="M12.4989 0.739258H17.5657C19.257 0.739258 20.4983 1.16506 21.268 2.01257C22.0524 2.84536 22.4463 3.91518 22.4463 5.20668C22.4463 8.46758 20.413 9.96665 17.0713 9.96665H15.5163V12.7205H12.4989V0.739258ZM15.5163 7.5053H16.7617C18.4679 7.5053 19.2709 6.63928 19.2709 5.43275C19.2709 4.20741 18.6055 3.2931 17.0514 3.2931H15.5163V7.5053Z" fill="white"/>
<path d="M30.3215 3.48336H33.2444V12.717H30.3215V12.1735C29.579 12.6318 28.7825 12.8686 27.9396 12.8686C26.5373 12.8686 25.4391 12.3928 24.6449 11.4411C23.8497 10.491 23.4449 9.37046 23.4449 8.07983C23.4449 6.77447 23.8503 5.65394 24.6449 4.71823C25.4395 3.76822 26.5377 3.29248 27.9396 3.29102C28.7348 3.29102 29.53 3.49432 30.3215 3.91973V3.48336ZM30.3215 6.51917C29.8135 6.09407 29.206 5.89076 28.4772 5.89076C27.7849 5.89076 27.2439 6.11255 26.8391 6.5342C26.4343 6.95585 26.2316 7.48432 26.2316 8.07983C26.2245 8.6595 26.4424 9.21916 26.8391 9.64018C27.2445 10.0656 27.7849 10.2874 28.4772 10.2874C29.2023 10.2874 29.8135 10.0841 30.3215 9.65866V6.51917Z" fill="white"/>
<path d="M43.4507 10.9308C42.6165 12.1386 41.256 12.8686 39.8101 12.8686C38.3968 12.8686 37.2075 12.4091 36.2028 11.4754C35.2167 10.5382 34.7236 9.41925 34.7236 8.08909C34.7236 6.74417 35.2167 5.62147 36.2028 4.68772C37.2078 3.75052 38.3975 3.29102 39.8101 3.29102C41.3078 3.29102 42.6165 4.02452 43.4877 5.19524L41.6156 6.92935C41.2073 6.23288 40.6106 5.87351 39.8101 5.87351C39.5196 5.87289 39.2318 5.92955 38.9633 6.04025C38.6948 6.15095 38.4507 6.31351 38.2451 6.51862C38.0395 6.72373 37.8765 6.96736 37.7652 7.23555C37.654 7.50375 37.5968 7.79124 37.5969 8.08155C37.5969 8.6779 37.8193 9.20425 38.2455 9.63048C38.4486 9.839 38.6921 10.004 38.9611 10.1154C39.2301 10.2268 39.5189 10.2824 39.8101 10.2786C40.6109 10.2786 41.2042 9.92301 41.6156 9.22277L43.4507 10.9308Z" fill="white"/>
<path d="M50.8958 7.15253L54.2117 12.7209H50.9809L48.9722 9.41299L47.783 10.6111V12.7209H44.856V0H47.783V6.71507L50.758 3.54326H54.1445L50.8958 7.15253Z" fill="white"/>
<path d="M63.4416 8.91963H57.1567C57.4953 9.95296 58.2714 10.5289 59.287 10.5289C60.0305 10.5289 60.873 10.0711 61.3294 9.4105L63.1545 10.92C62.2935 12.1415 60.7886 12.8688 58.9818 12.8688C57.6128 12.8688 56.4802 12.411 55.5841 11.4956C54.6898 10.5805 54.2484 9.44739 54.2484 8.10767C54.2484 6.76795 54.6848 5.63489 55.5841 4.71944C56.4781 3.78554 57.6103 3.32812 58.9818 3.32812C60.3846 3.32812 61.4656 3.78554 62.2568 4.70099C63.0479 5.61644 63.4562 6.81954 63.4562 8.29214L63.4416 8.91963ZM60.7038 7.22474C60.7038 6.39433 60.2474 5.59737 58.9818 5.59737C58.0875 5.59737 57.3774 6.27645 57.1567 7.22474H60.7038Z" fill="white"/>
<path d="M67.8728 3.49796V4.5132C68.6054 3.7341 69.5463 3.34283 70.725 3.32812C70.8438 3.32812 70.948 3.32812 71 3.34658V6.51429C70.6726 6.45221 70.3404 6.41883 70.0072 6.41452C68.6574 6.41452 67.9436 7.0754 67.8728 8.39715V12.7209H64.9354V3.49796H67.8728Z" fill="white"/>
</g>
</svg>
