<svg width="80" height="109" viewBox="0 0 80 109" fill="none" xmlns="http://www.w3.org/2000/svg">
<path fill-rule="evenodd" clip-rule="evenodd" d="M75.7636 40.7073C75.8232 40.7322 75.9368 40.7649 75.9791 40.7822C76.1586 40.8508 76.3176 40.964 76.441 41.111C76.7297 41.4513 76.7298 41.832 76.7124 42.2415C76.9357 42.4491 77.3129 42.6587 77.5381 42.8683C77.9423 43.2528 78.1386 43.4623 78.2733 44.0218C78.3375 44.3736 78.3421 44.7337 78.2868 45.0869C78.3708 45.1766 78.4354 45.2827 78.4764 45.3985C78.5175 45.5143 78.5342 45.6373 78.5254 45.7598C78.5004 46.4789 78.4889 47.198 78.4427 47.917L78.4927 47.942C78.6702 48.0185 78.823 48.1424 78.9344 48.3002C79.0458 48.4579 79.1114 48.6434 79.124 48.836C79.1432 49.0898 78.997 49.4416 78.945 49.6839C79.6514 49.7281 80.0709 50.0684 79.9901 50.8374C79.8919 51.7987 79.2048 52.6697 78.4504 53.2176C77.9692 53.5656 77.3168 53.9559 77.1782 54.5769C77.1609 54.6519 77.1339 54.7288 77.1108 54.8038L77.1224 54.8691C77.2742 55.0342 77.3867 55.2314 77.4515 55.4459C77.8364 55.544 78.0289 55.8574 78.0539 56.288C78.0381 57.1662 77.8835 58.0363 77.5958 58.8662L77.6517 58.9008C78.0212 59.1392 78.2906 59.4584 78.2598 59.9217C78.2465 60.0711 78.1955 60.2146 78.1116 60.3389C78.0693 60.4082 77.9846 60.5101 77.9192 60.5946C78.0135 60.6485 78.1598 60.7235 78.2213 60.7715C78.35 60.8723 78.4552 60.9998 78.5297 61.1452C78.6041 61.2906 78.646 61.4504 78.6525 61.6136C78.7333 62.4788 77.8364 63.344 77.2167 63.8419C76.9134 64.0645 76.5958 64.2668 76.2659 64.4475C75.9935 64.5916 75.7357 64.7616 75.496 64.9551C75.4556 64.9993 75.3151 65.1205 75.3613 65.1877C75.6693 65.6261 75.7463 66.0856 75.5057 66.5451C75.6812 67.3892 75.6206 68.2652 75.3305 69.0772C74.9706 70.1211 74.4818 71.1151 74.0314 72.1207C73.3116 73.7299 72.8497 75.6852 71.5505 76.9464C71.036 77.4606 70.4363 77.8821 69.7779 78.1922C69.5758 78.2903 69.368 78.3845 69.1601 78.4652C69.1101 79.4804 68.5558 80.6032 67.9611 81.4414C68.1079 81.5658 68.2167 81.729 68.2753 81.9122C68.3338 82.0954 68.3396 82.2913 68.2921 82.4777C68.2296 82.664 68.1163 82.8291 67.9649 82.9545C68.0304 83.0276 68.167 83.1602 68.194 83.191C68.3007 83.3198 68.3792 83.4694 68.4246 83.6303C68.47 83.7913 68.4813 83.9599 68.4576 84.1254C68.3479 85.3347 65.6457 86.4479 64.6083 86.7036C64.3389 86.7709 64.2927 86.7939 64.2773 87.0785C64.233 87.9302 64.362 88.5358 63.4439 88.9876C63.2807 89.0695 63.113 89.142 62.9416 89.2049C62.8604 89.6942 62.6501 90.153 62.3325 90.5341C62.0148 90.9153 61.6013 91.205 61.1344 91.3736C60.9466 91.4322 60.753 91.4703 60.557 91.487C60.6437 91.7109 60.6695 91.9536 60.632 92.1907C60.6042 92.4022 60.5183 92.6018 60.3838 92.7675C60.3087 92.8617 60.2067 92.9463 60.1374 93.0405C60.0998 93.0916 60.0808 93.154 60.0835 93.2174C60.0835 93.996 60.6166 94.7228 60.1509 95.5245C59.7082 96.2935 58.6573 96.7838 57.8952 97.1779C57.6837 97.2725 57.4531 97.3166 57.2216 97.3067C57.1215 97.3067 56.854 97.2933 56.6884 97.3067H56.7885L55.5317 98.3719C53.3242 100.244 51.2378 102.257 48.9302 104.011C48.2335 104.54 47.8101 104.888 46.8862 104.628C46.459 104.509 46.0317 104.397 45.6006 104.293C44.0609 105.614 42.4833 106.895 40.8679 108.139L39.742 109L38.6372 108.116C37.0667 106.856 35.5308 105.555 34.0181 104.234C33.5561 104.345 33.0962 104.472 32.6458 104.618C31.8009 104.903 31.5603 104.618 30.9136 104.163C28.4674 102.461 26.3657 100.364 24.0908 98.4565L23.0207 97.5605C22.399 97.2817 21.6734 96.903 21.2173 96.4454L13.8074 88.9184L14.8987 88.6992C15.0193 88.6749 15.1405 88.6518 15.2624 88.63L9.58472 81.4991L10.0601 81.4818C10.42 81.4683 10.778 81.453 11.1379 81.4414C10.6925 80.244 10.1182 79.0984 9.42498 78.025L9.30565 77.8423C8.68509 77.5964 8.1125 77.2437 7.61389 76.8003C6.25124 75.5602 6.10882 73.7529 5.39862 72.1668C4.92709 71.1113 4.29965 70.1173 3.92242 69.0214C3.61461 68.1948 3.55115 67.2972 3.73958 66.4355L3.93205 65.6569C3.55306 65.0351 3.20804 64.3933 2.89851 63.7343L2.37501 62.6441L3.52979 62.8979C3.33733 62.0289 3.11022 61.1676 2.86002 60.3139C2.2231 58.1383 1.44584 56.0062 0.533125 53.9309L0 52.7235L1.26257 53.108C1.70138 53.2426 2.13828 53.3926 2.5694 53.556C2.21344 52.7881 1.93866 51.9853 1.7495 51.1604C0.979643 47.767 1.87268 43.9007 3.78385 41.0245L4.07447 40.59C3.882 37.5138 3.77038 34.4492 3.74536 31.3769V29.8945C4.58257 29.9522 5.37745 29.8023 6.20312 29.6484C8.93612 29.137 11.3169 27.9739 13.8921 26.7915C18.0012 24.9054 21.9756 22.7636 25.9885 20.6737C26.9059 20.1931 27.8246 19.7137 28.7445 19.2356L21.8408 13.0833L34.5839 11.8375L39.6804 0L44.8038 11.8259L57.5468 13.0718L50.7702 19.1203C52.4292 19.9893 54.0786 20.8756 55.7319 21.7581C59.0596 23.5365 62.3892 25.3168 65.8343 26.8607C68.4538 28.0354 71.3792 29.2312 74.2412 29.6119L75.8617 29.8292L75.8078 31.4615C75.7116 34.4127 75.6904 37.3638 75.5981 40.315C75.6481 40.4458 75.6981 40.5784 75.7559 40.6996L75.7636 40.7073ZM37.1071 103.711C37.9912 104.465 38.8836 105.207 39.7843 105.937C40.7158 105.218 41.6339 104.484 42.5385 103.734C41.5868 103.613 40.6282 103.554 39.6688 103.557C38.8129 103.565 37.9579 103.617 37.1071 103.711Z" fill="#1D1D1B"/>
<path fill-rule="evenodd" clip-rule="evenodd" d="M12.1695 35.5356C17.3449 33.513 22.3817 31.0271 27.2857 28.422C28.5175 27.7709 29.7435 27.1095 30.9637 26.4379L32.0684 21.3987L30.7501 20.2221C24.3217 23.502 17.5239 27.1742 12.2735 29.4602C9.59438 30.6253 7.22322 31.3193 5.57572 31.5001C5.60459 36.2624 5.87789 40.8439 6.21278 45.0602C5.66388 43.9101 5.17312 42.7333 4.74235 41.5341C4.53256 38.1465 4.37667 34.757 4.35742 31.3616V30.4465C5.63237 30.3408 6.89205 30.0971 8.11433 29.7197C10.1704 29.0387 12.1857 28.2401 14.15 27.328C18.2553 25.4439 22.2701 23.2906 26.2753 21.1949C27.4454 20.5835 28.6214 19.9683 29.807 19.3588L23.2497 13.5372L34.9785 12.3836L39.6804 1.51709L44.39 12.3894L56.1207 13.543L49.7251 19.2512C51.6497 20.2471 53.5494 21.2718 55.4548 22.2889C58.7863 24.0692 62.1468 25.8649 65.5957 27.4088C68.2132 28.5835 71.3119 29.8274 74.1681 30.2081L75.2497 30.3523L75.2132 31.4424C75.1227 34.1879 75.0996 36.9353 75.0207 39.6807C74.8738 39.5178 74.7106 39.3703 74.5338 39.2405C74.3447 39.0527 74.0993 38.9318 73.8351 38.8963C73.8851 36.7584 73.9082 34.4743 74.0083 31.3982C67.2721 30.4984 57.5353 24.6345 48.7628 20.1048L47.3097 21.4026L48.4144 26.4455C49.3254 26.9326 50.2364 27.4171 51.1474 27.899C54.0094 29.4121 56.8867 30.906 59.8083 32.3056C62.2603 33.4803 64.8124 34.6339 67.376 35.5202L68.2344 35.8163L68.1863 36.7219C67.7648 44.6045 66.9969 52.6006 64.8701 60.2276C60.9977 74.1107 53.4743 85.3829 43.6991 95.6208C43.189 95.5592 42.6809 95.5093 42.169 95.4727C52.7872 84.5139 59.9815 73.2551 63.7057 59.9046C65.7131 52.7044 66.533 45.0006 66.9776 36.6584C61.9524 34.9281 55.2257 31.4385 48.7512 27.9932L49.8444 32.992L39.6804 26.9781L29.5202 32.9901L30.6134 28.0048C24.6663 31.2424 18.5343 34.3494 12.6007 36.6565C13.2185 44.8256 13.6862 52.8217 15.7147 60.0622C19.4428 73.3743 27.7534 86.1693 37.6345 95.492C37.1071 95.5342 36.5817 95.5862 36.0563 95.6515C26.2175 86.1231 18.2033 73.4166 14.5542 60.3852C14.2482 59.2951 13.9768 58.1935 13.7362 57.0822L14.0326 56.3997L13.6111 56.5093C12.2639 50.0436 11.8789 43.276 11.3958 36.7526L11.3285 35.8644L12.158 35.5414L12.1695 35.5356ZM36.0582 103.596C37.5768 104.901 38.847 105.951 39.7766 106.697C41.0597 105.71 42.33 104.689 43.5874 103.634C44.1007 103.716 44.6075 103.814 45.1079 103.926C43.6067 105.208 42.074 106.45 40.5099 107.652L39.7593 108.229L39.0222 107.639C37.4998 106.42 36.0024 105.153 34.5262 103.869C35.0247 103.765 35.5405 103.676 36.0659 103.6L36.0582 103.596Z" fill="#F6CB00"/>
<path fill-rule="evenodd" clip-rule="evenodd" d="M7.48636 47.9726C5.95626 45.827 4.94583 43.1949 4.27798 41.355C2.14932 44.5715 1.71243 48.3167 2.32831 51.0237C2.5458 51.9929 2.89687 52.9272 3.37147 53.8C3.60497 53.0431 3.91786 52.3129 4.30492 51.6217C4.3973 51.4602 4.49739 51.2968 4.59939 51.1333C4.12401 49.3818 3.75255 46.1615 4.0066 44.212C4.01738 45.603 4.12219 46.9917 4.32032 48.3686C4.42675 47.7299 4.6292 47.1109 4.92081 46.5325C4.65374 47.4166 4.49856 48.3305 4.45889 49.253C4.56282 49.8298 4.68023 50.3528 4.8111 50.8142C5.5604 49.7438 6.4601 48.7868 7.48251 47.9726H7.48636Z" fill="#F6CB00"/>
<path fill-rule="evenodd" clip-rule="evenodd" d="M7.48636 47.9726C5.95626 45.827 4.94583 43.1949 4.27798 41.355C2.14932 44.5715 1.71243 48.3167 2.32831 51.0237C2.5458 51.9929 2.89687 52.9272 3.37147 53.8C3.60497 53.0431 3.91786 52.3129 4.30492 51.6217C4.3973 51.4602 4.49739 51.2968 4.59939 51.1333C4.12401 49.3818 3.75255 46.1615 4.0066 44.212C4.01738 45.603 4.12219 46.9917 4.32032 48.3686C4.42675 47.7299 4.6292 47.1109 4.92081 46.5325C4.65374 47.4166 4.49856 48.3305 4.45889 49.253C4.56282 49.8298 4.68023 50.3528 4.8111 50.8142C5.5604 49.7438 6.4601 48.7868 7.48251 47.9726H7.48636Z" fill="#F6CB00"/>
<path fill-rule="evenodd" clip-rule="evenodd" d="M10.3919 46.7075C7.93606 47.5669 5.64381 49.9759 4.61797 51.8024C4.18401 52.5745 3.84721 53.3972 3.61523 54.2518C4.48327 54.6387 5.31982 55.0925 6.11727 55.6092C6.17116 55.3669 6.23467 55.1093 6.30973 54.8401C6.24815 54.1345 5.89209 53.0098 5.51486 52.1196C5.95556 52.7886 6.2748 53.5299 6.45793 54.3095C6.95064 52.6041 7.7051 50.5931 8.5096 49.2877C7.58498 51.3791 6.87563 53.559 6.39249 55.7937C7.58577 56.6108 8.63855 57.5818 9.35645 58.7026C9.69727 58.4254 10.0519 58.1656 10.4188 57.924C10.4593 57.6913 10.4901 57.4606 10.5132 57.2338C10.6306 56.0206 10.4092 54.571 10.0917 53.1463C9.70673 51.3987 9.78756 48.434 10.3804 46.7075H10.3919Z" fill="#F6CB00"/>
<path fill-rule="evenodd" clip-rule="evenodd" d="M10.3919 46.7075C7.93606 47.5669 5.64381 49.9759 4.61797 51.8024C4.18401 52.5745 3.84721 53.3972 3.61523 54.2518C4.48327 54.6387 5.31982 55.0925 6.11727 55.6092C6.17116 55.3669 6.23467 55.1093 6.30973 54.8401C6.24815 54.1345 5.89209 53.0098 5.51486 52.1196C5.95556 52.7886 6.2748 53.5299 6.45793 54.3095C6.95064 52.6041 7.7051 50.5931 8.5096 49.2877C7.58498 51.3791 6.87563 53.559 6.39249 55.7937C7.58577 56.6108 8.63855 57.5818 9.35645 58.7026C9.69727 58.4254 10.0519 58.1656 10.4188 57.924C10.4593 57.6913 10.4901 57.4606 10.5132 57.2338C10.6306 56.0206 10.4092 54.571 10.0917 53.1463C9.70673 51.3987 9.78756 48.434 10.3804 46.7075H10.3919Z" fill="#F6CB00"/>
<path fill-rule="evenodd" clip-rule="evenodd" d="M5.97042 67.5297C4.96835 66.2904 4.11985 64.9348 3.44336 63.4922C7.60636 64.4189 9.59259 65.7993 11.3344 67.3047C10.9739 67.8424 10.6597 68.4097 10.3952 69.0004C9.15955 67.8469 7.53323 66.4722 6.10322 65.6859C7.38695 66.7049 8.96324 67.9815 10.2604 69.31C10.2008 69.4523 10.145 69.5945 10.0911 69.7368C9.72539 69.5907 9.36164 69.4388 9.00173 69.2754C7.93087 68.8047 6.91392 68.22 5.96849 67.5316L5.97042 67.5297Z" fill="#F6CB00"/>
<path fill-rule="evenodd" clip-rule="evenodd" d="M5.97042 67.5297C4.96835 66.2904 4.11985 64.9348 3.44336 63.4922C7.60636 64.4189 9.59259 65.7993 11.3344 67.3047C10.9739 67.8424 10.6597 68.4097 10.3952 69.0004C9.15955 67.8469 7.53323 66.4722 6.10322 65.6859C7.38695 66.7049 8.96324 67.9815 10.2604 69.31C10.2008 69.4523 10.145 69.5945 10.0911 69.7368C9.72539 69.5907 9.36164 69.4388 9.00173 69.2754C7.93087 68.8047 6.91392 68.22 5.96849 67.5316L5.97042 67.5297Z" fill="#F6CB00"/>
<path fill-rule="evenodd" clip-rule="evenodd" d="M4.22296 63.3033C3.54741 59.9002 2.07314 55.932 1.07617 53.6787C4.46739 54.7208 7.61996 56.628 9.08846 58.937C8.31151 59.5966 7.62492 60.3555 7.04642 61.1942C6.51384 61.9855 6.09651 62.8484 5.80694 63.757C5.28344 63.5859 4.75224 63.4359 4.21719 63.3033H4.22296ZM2.85839 55.4514C3.86518 56.5255 4.8147 57.6517 5.70301 58.8255C5.15404 58.5235 4.56213 58.307 3.94774 58.1834C4.6623 58.4668 5.34911 58.8157 5.99941 59.2254C6.41234 59.8025 6.79397 60.4013 7.14265 61.0192L7.33511 60.727C6.42091 59.1101 4.7176 57.1029 2.86224 55.4514H2.85839Z" fill="#F6CB00"/>
<path fill-rule="evenodd" clip-rule="evenodd" d="M4.22296 63.3033C3.54741 59.9002 2.07314 55.932 1.07617 53.6787C4.46739 54.7208 7.61996 56.628 9.08846 58.937C8.31151 59.5966 7.62492 60.3555 7.04642 61.1942C6.51384 61.9855 6.09651 62.8484 5.80694 63.757C5.28344 63.5859 4.75224 63.4359 4.21719 63.3033H4.22296ZM2.85839 55.4514C3.86518 56.5255 4.8147 57.6517 5.70301 58.8255C5.15404 58.5235 4.56213 58.307 3.94774 58.1834C4.6623 58.4668 5.34911 58.8157 5.99941 59.2254C6.41234 59.8025 6.79397 60.4013 7.14265 61.0192L7.33511 60.727C6.42091 59.1101 4.7176 57.1029 2.86224 55.4514H2.85839Z" fill="#F6CB00"/>
<path fill-rule="evenodd" clip-rule="evenodd" d="M13.416 56.938C10.8985 57.5955 8.51199 59.6642 7.34565 61.3946C6.83193 62.1595 6.43073 62.9941 6.1543 63.8728C7.06408 64.1818 7.94455 64.5711 8.78528 65.036C8.91039 65.1071 9.03549 65.1783 9.15674 65.2513C9.45693 63.9817 9.91469 62.7546 10.5194 61.5984C10.1152 62.8558 9.72644 64.1362 9.42812 65.4186C9.75723 65.6262 10.0709 65.8435 10.377 66.0703C10.8266 65.5743 11.2359 65.0433 11.601 64.4823C11.1872 65.3167 10.9255 65.7877 10.556 66.2126C10.8908 66.4683 11.218 66.7356 11.5433 67.0124C11.9129 66.5033 12.3306 66.0308 12.7905 65.6012C12.772 64.7749 12.7026 63.9504 12.5826 63.1326C12.3343 61.36 12.6846 58.6164 13.416 56.9438V56.938Z" fill="#F6CB00"/>
<path fill-rule="evenodd" clip-rule="evenodd" d="M13.416 56.938C10.8985 57.5955 8.51199 59.6642 7.34565 61.3946C6.83193 62.1595 6.43073 62.9941 6.1543 63.8728C7.06408 64.1818 7.94455 64.5711 8.78528 65.036C8.91039 65.1071 9.03549 65.1783 9.15674 65.2513C9.45693 63.9817 9.91469 62.7546 10.5194 61.5984C10.1152 62.8558 9.72644 64.1362 9.42812 65.4186C9.75723 65.6262 10.0709 65.8435 10.377 66.0703C10.8266 65.5743 11.2359 65.0433 11.601 64.4823C11.1872 65.3167 10.9255 65.7877 10.556 66.2126C10.8908 66.4683 11.218 66.7356 11.5433 67.0124C11.9129 66.5033 12.3306 66.0308 12.7905 65.6012C12.772 64.7749 12.7026 63.9504 12.5826 63.1326C12.3343 61.36 12.6846 58.6164 13.416 56.9438V56.938Z" fill="#F6CB00"/>
<path fill-rule="evenodd" clip-rule="evenodd" d="M13.9209 78.8418C13.7939 79.8291 13.7572 80.8259 13.8112 81.8199C14.1096 81.8949 15.4145 82.1237 16.065 82.3063C16.0226 81.4969 16.0246 80.6298 16.065 79.7089C15.3799 79.3546 14.6634 79.0643 13.9248 78.8418H13.9209ZM16.3652 82.3948C16.6809 82.4909 16.9965 82.587 17.3083 82.712C17.4604 82.7697 17.6124 82.8273 17.7625 82.8889C17.9427 82.2819 18.1619 81.6872 18.4188 81.1085C17.7051 80.6281 16.9662 80.1859 16.2055 79.7839C16.244 80.651 16.2863 81.5277 16.3652 82.3948Z" fill="#F6CB00"/>
<path fill-rule="evenodd" clip-rule="evenodd" d="M13.9209 78.8418C13.7939 79.8291 13.7572 80.8259 13.8112 81.8199C14.1096 81.8949 15.4145 82.1237 16.065 82.3063C16.0226 81.4969 16.0246 80.6298 16.065 79.7089C15.3799 79.3546 14.6634 79.0643 13.9248 78.8418H13.9209ZM16.3652 82.3948C16.6809 82.4909 16.9965 82.587 17.3083 82.712C17.4604 82.7697 17.6124 82.8273 17.7625 82.8889C17.9427 82.2819 18.1619 81.6872 18.4188 81.1085C17.7051 80.6281 16.9662 80.1859 16.2055 79.7839C16.244 80.651 16.2863 81.5277 16.3652 82.3948Z" fill="#F6CB00"/>
<path fill-rule="evenodd" clip-rule="evenodd" d="M16.1274 88.7437L10.8096 82.0627C13.1544 81.9595 15.4939 82.3621 17.669 83.2432C17.4795 83.9526 17.3552 84.6779 17.2975 85.4099C16.1292 84.6667 14.9069 84.0118 13.6407 83.4508C14.7955 84.1449 16.1774 85.0331 17.2667 85.8022C17.2571 86.0213 17.2552 86.2386 17.2571 86.4578C16.8222 86.4943 16.391 86.5251 15.6039 86.5904C16.1408 86.6519 16.7452 86.6712 17.2629 86.6808C17.2881 87.336 17.3712 87.9877 17.5112 88.6284C17.0518 88.6476 16.5906 88.6873 16.1274 88.7476V88.7437Z" fill="#F6CB00"/>
<path fill-rule="evenodd" clip-rule="evenodd" d="M16.1274 88.7437L10.8096 82.0627C13.1544 81.9595 15.4939 82.3621 17.669 83.2432C17.4795 83.9526 17.3552 84.6779 17.2975 85.4099C16.1292 84.6667 14.9069 84.0118 13.6407 83.4508C14.7955 84.1449 16.1774 85.0331 17.2667 85.8022C17.2571 86.0213 17.2552 86.2386 17.2571 86.4578C16.8222 86.4943 16.391 86.5251 15.6039 86.5904C16.1408 86.6519 16.7452 86.6712 17.2629 86.6808C17.2881 87.336 17.3712 87.9877 17.5112 88.6284C17.0518 88.6476 16.5906 88.6873 16.1274 88.7476V88.7437Z" fill="#F6CB00"/>
<path fill-rule="evenodd" clip-rule="evenodd" d="M20.1605 78.6982C18.0068 81.9551 17.1349 85.3235 17.8798 88.6131C18.7172 88.5972 19.5544 88.6544 20.3818 88.7842C19.8824 86.5886 19.6951 84.3337 19.8256 82.0859C19.9078 83.92 20.1116 85.7466 20.4357 87.5537C20.6282 86.8808 20.8976 86.429 21.502 85.462C21.0651 86.3271 20.6224 87.4884 20.557 88.1536C20.607 88.3882 20.6609 88.6189 20.7186 88.8477C21.2387 88.9468 21.7527 89.0752 22.2583 89.2322C22.533 88.7734 22.8684 88.3537 23.2553 87.9844C22.9646 88.4028 22.7102 88.8454 22.4951 89.3072C23.2582 89.5573 23.9986 89.8718 24.7084 90.2473C24.8624 90.33 25.0144 90.4127 25.1626 90.4972C24.9501 89.417 24.564 88.3782 24.0194 87.4211C23.442 86.3713 22.6433 85.4562 21.9562 84.1815C21.1074 82.605 20.4607 80.4036 20.1489 78.7155L20.1605 78.6982Z" fill="#F6CB00"/>
<path fill-rule="evenodd" clip-rule="evenodd" d="M20.1605 78.6982C18.0068 81.9551 17.1349 85.3235 17.8798 88.6131C18.7172 88.5972 19.5544 88.6544 20.3818 88.7842C19.8824 86.5886 19.6951 84.3337 19.8256 82.0859C19.9078 83.92 20.1116 85.7466 20.4357 87.5537C20.6282 86.8808 20.8976 86.429 21.502 85.462C21.0651 86.3271 20.6224 87.4884 20.557 88.1536C20.607 88.3882 20.6609 88.6189 20.7186 88.8477C21.2387 88.9468 21.7527 89.0752 22.2583 89.2322C22.533 88.7734 22.8684 88.3537 23.2553 87.9844C22.9646 88.4028 22.7102 88.8454 22.4951 89.3072C23.2582 89.5573 23.9986 89.8718 24.7084 90.2473C24.8624 90.33 25.0144 90.4127 25.1626 90.4972C24.9501 89.417 24.564 88.3782 24.0194 87.4211C23.442 86.3713 22.6433 85.4562 21.9562 84.1815C21.1074 82.605 20.4607 80.4036 20.1489 78.7155L20.1605 78.6982Z" fill="#F6CB00"/>
<path fill-rule="evenodd" clip-rule="evenodd" d="M24.9825 97.6782C23.6988 97.2302 22.2553 96.6342 21.6548 96.0248L15.0264 89.2957C23.1272 87.6653 27.6982 92.7198 28.9088 94.006C29.2668 94.3905 29.8153 95.7152 30.2041 96.7553C29.7441 96.8611 29.2822 96.9688 28.8222 97.0687C27.9206 96.0953 26.9216 95.2166 25.8409 94.4463C25.8223 93.6993 25.6705 92.9617 25.3925 92.268C25.5508 92.9102 25.6022 93.574 25.5445 94.2329C23.7181 92.9428 21.3103 91.5816 18.1424 90.1531C19.4492 90.8683 20.7618 91.5566 22.0475 92.3007C21.4701 92.3507 21.1044 92.3564 20.1036 92.3872C20.9735 92.4872 21.9474 92.5429 22.5113 92.5795C23.9893 93.4333 25.3877 94.4177 26.6897 95.521C25.8871 95.5826 24.4225 95.6076 23.3735 95.6402C24.2185 95.7364 26.222 95.7729 27.0053 95.7979C27.4788 96.2247 27.9407 96.6784 28.3911 97.1668C28.0447 97.2398 27.6982 97.3091 27.3518 97.3744C26.6782 97.4994 25.7447 97.6994 24.9825 97.6859V97.6782Z" fill="#F6CB00"/>
<path fill-rule="evenodd" clip-rule="evenodd" d="M10.041 77.8579C10.7947 79.0579 11.4094 80.3395 11.8733 81.6781C12.4002 81.6862 12.9257 81.7331 13.4457 81.8185C13.3803 80.7831 13.43 79.7437 13.5939 78.7192C12.4545 78.4097 11.1958 78.2328 10.041 77.8579Z" fill="#F6CB00"/>
<path fill-rule="evenodd" clip-rule="evenodd" d="M10.041 77.8579C10.7947 79.0579 11.4094 80.3395 11.8733 81.6781C12.4002 81.6862 12.9257 81.7331 13.4457 81.8185C13.3803 80.7831 13.43 79.7437 13.5939 78.7192C12.4545 78.4097 11.1958 78.2328 10.041 77.8579Z" fill="#F6CB00"/>
<path fill-rule="evenodd" clip-rule="evenodd" d="M14.0924 65.0132C12.2235 66.2936 11.0899 68.1028 10.4355 69.8678C11.0842 70.1215 11.7385 70.3599 12.3891 70.608C12.5042 69.3674 12.7692 68.1454 13.1782 66.9685C12.9761 68.2105 12.7932 69.4679 12.6816 70.7195C12.9395 70.8194 13.1955 70.9213 13.4515 71.0271C14.1683 71.3069 14.8615 71.6438 15.5243 72.0345C15.38 71.7077 15.2414 71.3674 15.1124 71.0098C14.5081 69.3237 14.1501 66.7281 14.0981 65.0132H14.0924Z" fill="#F6CB00"/>
<path fill-rule="evenodd" clip-rule="evenodd" d="M14.0924 65.0132C12.2235 66.2936 11.0899 68.1028 10.4355 69.8678C11.0842 70.1215 11.7385 70.3599 12.3891 70.608C12.5042 69.3674 12.7692 68.1454 13.1782 66.9685C12.9761 68.2105 12.7932 69.4679 12.6816 70.7195C12.9395 70.8194 13.1955 70.9213 13.4515 71.0271C14.1683 71.3069 14.8615 71.6438 15.5243 72.0345C15.38 71.7077 15.2414 71.3674 15.1124 71.0098C14.5081 69.3237 14.1501 66.7281 14.0981 65.0132H14.0924Z" fill="#F6CB00"/>
<path fill-rule="evenodd" clip-rule="evenodd" d="M4.32533 66.5854C4.16302 67.3344 4.22117 68.1143 4.49277 68.831C4.81419 69.7654 5.39158 70.6767 5.94973 71.9264C6.58678 73.3511 6.81004 75.2602 8.02064 76.3619C9.50647 77.7077 11.46 77.75 13.5193 78.3095C15.1534 78.7536 16.8509 79.638 18.5715 80.7781C18.7602 80.3744 18.9674 79.9764 19.1932 79.5842C18.4503 77.5001 17.5168 75.0833 17.0761 74.2009C16.3255 72.6628 14.7877 71.9764 13.2999 71.365C10.6459 70.2711 7.06794 69.3636 4.3157 66.5893L4.32533 66.5854Z" fill="#DA2223"/>
<path fill-rule="evenodd" clip-rule="evenodd" d="M74.9003 66.6104C75.0692 67.3654 75.0198 68.1529 74.7579 68.8809C74.4365 69.8153 74.0361 70.6267 73.478 71.8744C72.8409 73.2991 72.302 75.3736 71.128 76.5137C70.6625 76.9863 70.1155 77.3712 69.5132 77.6499C68.1987 78.2825 66.6571 78.6324 65.2482 78.9727C63.1439 79.5114 61.1417 80.3894 59.3203 81.572C60.2403 79.5129 62.0148 75.1486 62.419 74.2488C63.2966 72.2724 64.6323 71.8975 66.1201 71.2842C68.7222 70.2402 72.1731 69.3078 74.9003 66.6104Z" fill="#DA2223"/>
<path fill-rule="evenodd" clip-rule="evenodd" d="M49.3915 96.7342C49.4531 95.8095 49.4666 94.8116 49.9689 94.2349C50.4154 93.7234 51.268 94.2695 51.7357 93.8503C52.1611 93.4658 51.9648 91.8489 52.852 90.8069C53.2139 90.3839 53.9933 90.7203 54.538 90.605C55.2713 90.4473 55.3598 89.6437 55.9796 89.5706C56.5993 89.4976 56.9188 90.2435 57.5039 90.0763C57.8445 89.9801 58.1121 89.5918 58.4662 89.2611C58.8203 88.9304 59.2361 88.6593 59.5613 88.7977C60.0348 89.0015 60.1272 89.4822 60.0617 89.9513C59.9963 90.4204 59.6768 90.7915 59.7442 91.2087C59.7904 91.4798 60.1291 91.6086 60.0483 92.1008C59.9674 92.593 59.492 92.5334 59.492 93.2178C59.492 93.9022 59.9424 94.7078 59.6422 95.225C59.3073 95.8018 58.4316 96.2324 57.6309 96.6458C57.3865 96.7727 56.5839 96.6458 56.3202 96.7881C55.9341 97.014 55.5672 97.2712 55.2232 97.5571H55.1539C54.1227 97.5845 53.0913 97.5111 52.0745 97.3379C53.0295 96.5894 53.9366 95.7816 54.7901 94.9193C55.9002 94.9818 57.0136 94.9406 58.1159 94.7963C57.4211 94.8136 55.8179 94.8501 55.0038 94.7001C56.3777 93.2772 57.6767 91.7839 58.8954 90.2262C57.9927 91.201 57.1151 92.1892 56.2009 93.1563C56.2683 92.5276 56.3164 92.07 56.3934 91.3202C56.1643 92.1277 56.045 92.9275 55.8968 93.4774C55.227 94.1791 54.538 94.8674 53.8086 95.5268C53.8086 94.7347 53.8856 93.2293 53.9298 92.1565C53.7701 93.0025 53.5853 95.0404 53.5045 95.796C52.9367 96.294 52.3497 96.7746 51.7107 97.2284C51.5182 96.5651 51.3893 96.1152 51.166 95.348C51.2449 96.0363 51.3874 96.6939 51.474 97.2149C50.7753 97.0669 50.0805 96.9015 49.3857 96.7362L49.3915 96.7342Z" fill="#F6CB00"/>
<path fill-rule="evenodd" clip-rule="evenodd" d="M65.7659 79.2209C65.0884 80.4495 64.1992 81.8722 63.3408 83.145C63.1807 82.4356 62.9539 81.743 62.6634 81.0763C62.8797 81.8298 63.0563 82.5941 63.1926 83.3661C62.8885 83.814 62.5902 84.2389 62.3073 84.6292C62.3011 84.5748 62.2914 84.5209 62.2784 84.4677C62.1629 83.9948 61.8839 83.8909 61.6876 83.5064C61.5567 83.2565 61.6471 82.4336 61.6202 82.1029C61.574 81.5684 61.4277 81.1416 60.9658 81.0263C62.3471 80.2776 63.8167 79.7047 65.3405 79.3209L65.7659 79.219V79.2209ZM68.5624 78.4384C68.5104 79.4805 67.8175 80.6571 67.3133 81.3108C66.9957 81.7242 67.8464 81.8107 67.7136 82.3279C67.6617 82.5201 67.2902 82.6297 67.3287 82.9835C67.3922 83.4949 67.9061 83.4238 67.8541 84.0717C67.8022 84.7196 65.8236 85.7828 64.4667 86.1192C64.0818 86.2134 63.7142 86.3576 63.6796 87.0479C63.6488 87.64 63.8124 88.136 63.1811 88.4475C63.037 88.5192 62.8892 88.5834 62.7384 88.6398C62.7318 88.4583 62.6859 88.2805 62.6038 88.1185C62.5217 87.9566 62.4055 87.8143 62.263 87.7015C61.8781 87.3747 61.549 86.9959 61.5086 86.5749C61.7991 85.9522 62.1289 85.3486 62.4959 84.7677C63.72 84.6023 65.0095 84.5523 66.0988 84.3293C64.9152 84.3774 63.7392 84.4773 62.6903 84.4831C63.1079 83.8813 63.6161 83.1373 64.1242 82.3279C64.5514 82.1568 65.0441 81.9645 65.533 81.7261L64.2724 82.0914C64.8624 81.1594 65.394 80.1918 65.864 79.194C66.7748 78.9887 67.6742 78.7359 68.5585 78.4365L68.5624 78.4384Z" fill="#F6CB00"/>
<path fill-rule="evenodd" clip-rule="evenodd" d="M54.6264 90.1912C54.534 89.5952 54.4955 89.0376 54.5937 88.6531C54.6803 88.3205 55.2692 88.1244 55.4655 87.7822C55.7484 87.2823 55.2269 85.9711 55.2827 85.4347C55.3616 84.681 56.1372 84.8983 56.6203 84.7426C57.2112 84.5503 56.8667 83.8639 57.3267 83.639C57.8579 83.3794 57.7328 84.0543 58.289 83.712C58.5334 83.5602 58.8048 82.9122 58.9049 82.6219C59.0049 82.3316 59.2802 82.2143 59.4534 82.0759C59.923 81.6914 60.3849 81.3665 60.6082 81.3568C61.124 81.3376 61.2164 81.6299 61.2606 82.1413C61.301 82.6162 61.1702 83.2948 61.3665 83.6794C61.5628 84.0639 61.8361 84.1792 61.9265 84.5561C62.0401 85.0213 61.7841 85.2424 61.5051 85.5866C60.7102 86.5652 61.3992 87.4284 62.0343 87.9802C62.4193 88.309 62.4193 88.6301 62.3692 89.03C62.3181 89.4263 62.1594 89.8011 61.9104 90.1139C61.6614 90.4267 61.3316 90.6655 60.9565 90.8045C60.6831 90.8788 60.4008 90.9157 60.1174 90.9141C60.1886 90.6411 60.3714 90.3258 60.4157 90.0047C60.5023 89.3703 60.3349 88.7396 59.6978 88.4666C59.2378 88.2744 58.7509 88.5397 58.3871 88.8512C58.722 88.0033 59.0877 87.0247 59.4072 86.0211C59.7652 85.7115 60.1886 85.3578 60.5908 84.9598L59.5034 85.7154C59.7791 84.8433 59.9958 83.9537 60.152 83.0526C59.719 84.9002 58.8048 87.3035 57.9849 89.2414C57.906 89.328 57.8174 89.4202 57.7308 89.501C57.4787 88.1398 57.2766 87.0958 56.9456 86.296C57.2149 87.4184 57.385 88.5623 57.4537 89.7144L57.4113 89.7317C57.0957 89.8201 56.6415 89.1299 55.9428 89.2126C55.2442 89.2953 55.0652 89.972 54.6283 90.1951L54.6264 90.1912Z" fill="#F6CB00"/>
<path fill-rule="evenodd" clip-rule="evenodd" d="M68.3162 64.1916C68.2992 63.8194 68.3808 63.4493 68.553 63.1188C68.8975 62.542 69.8367 62.9092 70.2159 62.4074C70.5623 61.9498 70.0619 60.3983 70.7374 59.2082C71.0127 58.7237 71.7825 58.8237 72.2964 58.6007C72.9873 58.3084 72.5928 58.3046 73.1702 58.0681C73.8246 57.797 73.8958 57.3375 74.3057 57.1472C74.5425 57.0376 74.81 57.4375 75.4605 56.7108C75.7875 56.3881 76.2015 56.1677 76.6519 56.0763C77.0021 56.0071 77.4102 55.8187 77.4333 56.2955C77.4564 56.7723 77.2408 58.2085 76.9386 58.8583C76.7192 59.3313 77.6815 59.3505 77.6488 59.885C77.6373 60.0772 77.1638 60.4137 77.2754 60.7521C77.4352 61.2423 77.9876 61.0231 78.0453 61.6711C78.0857 62.1133 77.6046 62.7535 76.8309 63.3726C76.4806 63.6533 75.3085 64.2589 75.0429 64.5492C74.7773 64.8395 74.6117 65.176 74.8619 65.5316C75.2777 66.1257 74.8927 66.4756 74.3327 66.8986C74.2148 66.4869 74.013 66.104 73.7399 65.7739C73.6379 65.6528 73.2068 65.2683 73.1625 65.1971C73.124 65.0856 73.1625 64.5896 73.1163 64.3819C73.09 64.2475 73.0432 64.1178 72.9777 63.9974C73.9073 63.8494 75.3027 63.5764 75.9494 63.3207C74.9078 63.5434 73.8506 63.6855 72.7872 63.7456C72.6996 63.6587 72.6005 63.5843 72.4927 63.5244C73.405 62.0748 75.6068 59.487 76.546 58.4334C75.5529 59.3505 72.9354 61.9998 72.231 63.4072C72.1402 63.3755 72.0477 63.3491 71.9538 63.3283C71.3418 63.1938 70.2216 63.5418 69.6231 63.734C69.1804 63.8782 68.7397 64.0378 68.3047 64.2031L68.3162 64.1916Z" fill="#F6CB00"/>
<path fill-rule="evenodd" clip-rule="evenodd" d="M69.9332 54.5845C69.9246 54.4629 69.9246 54.3408 69.9332 54.2192C69.9756 54.373 70.0064 54.498 69.9332 54.5845ZM72.4507 49.5357C72.5238 49.0282 72.7066 48.5744 73.0281 48.3822C73.6728 47.9976 74.0443 48.1015 74.5832 47.7862C75.1952 47.4305 74.8969 47.0421 75.278 46.796C75.4974 46.6557 75.8419 46.9383 76.2942 46.3596C76.5887 45.9847 76.7734 45.7347 77.1083 45.6194C77.4432 45.504 77.9282 45.2541 77.9128 45.7309C77.8974 46.2077 77.8801 47.1921 77.8223 48.0053C77.7839 48.5244 78.4729 48.3418 78.5133 48.8743C78.5287 49.0666 78.2073 49.7434 78.3632 50.0644C78.5884 50.5278 79.466 49.9414 79.3813 50.7681C79.3236 51.3257 78.9367 52.1139 78.0802 52.7196C77.6684 53.0176 76.9004 53.4751 76.6291 54.2403C76.4719 53.9656 76.2658 53.7219 76.0209 53.5213C75.9016 53.4194 75.2202 52.9714 75.1567 52.8907C75.1567 52.8407 75.1471 52.7926 75.1432 52.7426C75.9824 52.3446 77.0814 51.7813 77.5837 51.3968C76.7889 51.8142 75.9694 52.1827 75.1298 52.5004C75.1298 52.4504 75.1298 52.4004 75.1163 52.3504C75.6032 50.6412 76.3096 48.4552 76.6695 47.4093C76.3981 48.0053 75.967 49.0781 75.5551 50.2259C75.2914 49.776 75.1048 49.4838 74.766 48.9013C75.0008 49.53 75.2568 50.0394 75.4589 50.497C75.2895 50.9719 75.1279 51.4583 74.9816 51.9178C74.9623 51.8871 74.9412 51.8563 74.9181 51.8255C74.7996 51.6812 74.6397 51.5766 74.46 51.5256C74.3698 51.503 74.2811 51.4747 74.1944 51.441C74.0173 51.1123 73.9153 50.7835 73.7113 50.4509C73.4611 50.0433 72.9549 49.5434 72.443 49.5434L72.4507 49.5357ZM76.8773 55.6496C76.8923 55.7377 76.8857 55.828 76.8581 55.913V55.8861C76.8581 55.8092 76.8639 55.7303 76.8754 55.6496H76.8773Z" fill="#F6CB00"/>
<path fill-rule="evenodd" clip-rule="evenodd" d="M70.2018 59.5315C70.1659 59.4431 70.1376 59.3518 70.1171 59.2585C70.044 58.924 70.4847 58.4895 70.5021 58.0896C70.5328 57.5128 69.4781 56.5784 69.2876 56.0747C69.0201 55.3653 69.8111 55.2115 70.1729 54.8558C70.6175 54.4213 70.0016 53.9598 70.3115 53.5542C70.6695 53.0831 70.86 53.7464 71.1988 53.1908C71.3489 52.9466 71.3527 52.4487 71.3123 52.1449C71.2719 51.8411 71.4644 51.4201 71.5568 51.2067C71.6799 50.9202 71.9821 50.1012 72.2227 49.9685C72.6076 49.7205 73.1407 50.1973 73.4102 50.6318C73.6796 51.0663 73.7066 51.2817 73.8894 51.6162C74.0318 51.8757 74.4379 51.7796 74.64 52.0392C74.8075 52.2545 74.7517 52.4717 74.8056 52.9409C74.8402 53.2427 75.331 53.3984 75.7929 53.7907C76.12 54.0513 76.3608 54.4044 76.4838 54.8039C76.5439 55.1133 76.5491 55.4309 76.4992 55.7421C76.006 55.8565 75.5554 56.1085 75.2001 56.4688C74.6323 57.0956 74.6362 56.5938 74.1531 56.8207C73.9691 56.9137 73.8071 57.0448 73.6777 57.2052C73.6623 56.913 73.6411 56.6015 73.6123 56.2785C73.8913 55.8267 74.2724 55.2768 74.6035 54.6712L73.5834 55.9555C73.4256 54.2867 73.1427 52.4256 72.954 51.5335C73.0945 52.8024 73.3563 55.6556 73.4275 57.4744C73.3129 57.5861 73.1785 57.6754 73.031 57.7378C72.8357 57.8033 72.6593 57.9155 72.5171 58.0646C72.4117 58.1574 72.2887 58.228 72.1553 58.2722C71.5779 58.5145 70.8081 58.3588 70.4231 59.0413C70.3327 59.2003 70.2579 59.3677 70.1999 59.5412L70.2018 59.5315Z" fill="#F6CB00"/>
<path fill-rule="evenodd" clip-rule="evenodd" d="M71.2761 50.947C70.8808 50.5906 70.5038 50.2145 70.1463 49.8203C69.5112 49.2167 69.9134 49.6723 69.5285 49.0917C69.2244 48.6303 69.6112 48.0093 70.0462 47.7016C70.1658 47.621 70.2683 47.5174 70.3475 47.397C70.4268 47.2765 70.4814 47.1416 70.5081 46.9999C70.5678 46.4231 69.8595 45.804 69.6478 45.1311C69.4669 44.5543 69.8403 43.37 71.0855 43.1681C71.4531 43.1085 71.3473 42.4299 71.5571 42.2299C72.1595 41.6628 72.7734 42.4875 72.7292 41.434C72.7311 41.1131 72.804 40.7966 72.9428 40.5073C73.0795 40.2285 73.422 39.4248 73.6684 39.3056C73.8801 39.1787 74.0803 39.3364 74.3055 39.519C74.5074 39.6549 74.6823 39.827 74.8213 40.0266C75.0522 40.4438 75.0869 40.688 75.2524 41.0321C75.3813 41.2975 75.7682 41.2417 75.9799 41.4916C76.1377 41.6839 76.1223 41.8762 76.1031 42.3491C76.0896 42.6529 76.6805 42.8817 77.1231 43.297C77.3887 43.5469 77.5716 43.6815 77.687 44.1506C77.7308 44.4608 77.7276 44.7758 77.6774 45.085C77.5167 45.0977 77.3589 45.1353 77.2097 45.1965C77.1385 45.2215 77.0692 45.2503 76.998 45.2734C76.5477 45.4291 76.2994 45.7733 76.0184 46.1347C75.6642 46.5865 75.4795 46.2405 75.0907 46.4904C74.5672 46.8269 74.8597 47.2075 74.4094 47.4709C74.2477 47.562 74.0741 47.6299 73.8936 47.6728L73.78 47.7016C73.8801 47.021 73.9609 46.1193 74.0187 45.1888C74.3593 44.762 74.8386 44.2275 75.2466 43.6507C74.7674 44.1237 74.4248 44.4601 74.0398 44.8427C74.1226 43.3796 74.1534 41.9012 74.1226 41.1321C74.0572 42.2626 73.8782 44.6851 73.6761 46.4885C73.0814 45.8656 72.3288 45.1427 71.7515 44.8523C72.4442 45.452 73.076 46.1185 73.6376 46.8422C73.5953 47.1883 73.5548 47.5017 73.5125 47.7709C73.282 47.8404 73.061 47.9379 72.8543 48.0612C72.35 48.3592 72.1422 49.0225 72.0844 49.6281L72.0421 49.6531C71.7091 49.8453 71.4531 50.5279 71.2838 50.9393L71.2761 50.947Z" fill="#F6CB00"/>
<path fill-rule="evenodd" clip-rule="evenodd" d="M65.9909 70.9499C65.9692 70.7711 65.9692 70.5904 65.9909 70.4116C66.1044 69.9079 66.7934 69.8348 67.1457 69.3619C67.4517 68.9408 67.2169 68.4582 66.9532 67.8488C66.626 67.0643 66.2295 66.1069 66.5471 65.1571C66.626 64.4035 67.0706 65.0264 67.5537 64.8707C67.7057 64.8226 69.1839 64.1977 70.4252 63.8594C70.1673 65.0745 69.8613 66.3011 69.5284 67.5392C68.9126 66.7454 68.2238 66.011 67.4709 65.3455C67.9598 65.8666 69.0511 67.1201 69.4514 67.8199C69.2705 68.4916 69.0812 69.1651 68.8836 69.8406C67.9213 70.2251 66.959 70.5596 65.9966 70.9461L65.9909 70.9499ZM70.458 63.8555C71.0488 63.6959 71.582 63.6037 71.8899 63.6633C73.1255 63.9343 72.6963 64.9033 72.8368 65.3032C72.9446 65.6109 73.6509 65.8608 73.9916 66.9586C72.8815 67.8836 71.6474 68.6492 70.3252 69.233C69.9633 69.3984 69.5996 69.5522 69.232 69.7002C69.3032 69.4234 69.3705 69.1388 69.4398 68.8466C70.2097 68.3294 71.6224 67.3085 72.2383 66.6202C71.3856 67.3082 70.4794 67.9273 69.5284 68.4717C69.6881 67.7815 69.8479 67.047 70.0057 66.2588C70.3521 65.8339 70.8371 65.3148 71.2759 64.7207C70.789 65.1821 70.4714 65.4897 70.0865 65.8531C70.2148 65.2122 70.3431 64.5425 70.4714 63.844L70.458 63.8555Z" fill="#F6CB00"/>
<path fill-rule="evenodd" clip-rule="evenodd" d="M39.6876 4.54688L35.8017 13.5177L26.0996 14.4675L33.3959 20.9774L31.2981 30.5424L39.6876 25.5801L48.079 30.5424L45.9812 20.9774L53.2756 14.4675L43.5734 13.5177L39.6876 4.54688Z" fill="#DA2223"/>
<path fill-rule="evenodd" clip-rule="evenodd" d="M39.7983 9.86865L39.5461 18.4338L31.1162 16.0748L39.3152 19.1337L34.519 26.1166L39.8194 19.4874L44.9159 25.9551L40.3429 19.0933L48.0762 16.2978L40.1736 18.4934L39.7983 9.86865Z" fill="#F6CB00"/>
<path fill-rule="evenodd" clip-rule="evenodd" d="M24.4854 97.9968C26.7333 99.881 28.7196 101.904 31.2639 103.67C31.7528 104.009 31.8548 104.247 32.4572 104.055C34.3049 103.434 37.29 102.973 39.665 102.959C42.1151 102.946 44.6479 103.376 47.0595 104.055C47.7581 104.247 48.0411 103.943 48.5761 103.538C50.8703 101.794 52.9527 99.7829 55.1526 97.9199C54.0595 97.9521 52.966 97.8689 51.8903 97.6719C48.401 96.9644 44.8423 95.7108 39.7343 95.7685C34.6263 95.8262 30.2343 97.2009 27.4166 97.7238C26.2522 97.9411 25.2571 98.1295 24.4854 98.0007V97.9968Z" fill="#DA2223"/>
<path fill-rule="evenodd" clip-rule="evenodd" d="M12.0385 35.2045C17.2139 33.1819 22.2122 30.7133 27.1162 28.112C28.2979 27.4853 29.4745 26.8502 30.646 26.2067L31.6699 21.5348L30.6883 20.66C29.4431 21.3003 28.2055 21.9463 26.9757 22.5826C22.9493 24.686 18.9095 26.8547 14.7811 28.7503C13.8631 29.1714 12.7564 29.6713 11.5881 30.1365C9.68659 30.9056 7.81391 31.5381 5.92969 31.8188C5.96433 35.9197 6.16257 39.8937 6.47629 43.985C6.52633 44.6259 6.57765 45.2629 6.63026 45.8961C6.97223 46.5351 7.35272 47.1527 7.76965 47.7456C8.529 47.1603 9.37254 46.693 10.2717 46.3595L10.9742 46.1134L10.7336 46.817C10.1562 48.4782 10.0734 51.3486 10.4564 53.0616C10.7509 54.3844 11.0146 55.9052 10.8837 57.2625C10.8702 57.3971 10.8548 57.5298 10.8356 57.6644C11.5939 57.1975 12.4132 56.8377 13.2703 56.5954C11.923 50.0931 11.5381 43.366 11.0454 36.7734L10.9588 35.6198L12.0385 35.1987V35.2045ZM30.5632 96.6739C31.2561 96.5144 31.9509 96.3586 32.6457 96.2202C33.6311 96.028 34.6165 95.853 35.6058 95.7203C25.8074 86.165 17.8548 73.4951 14.2133 60.4944C13.9567 59.5716 13.7226 58.643 13.5109 57.7086C12.972 59.3178 12.7275 61.5538 12.9335 63.0822C13.0397 63.812 13.1084 64.5468 13.1394 65.2836C13.3768 65.0862 13.6238 64.8985 13.8804 64.7203L14.4251 64.3473L14.4462 65.0068C14.5059 66.8121 14.8312 69.1961 15.4393 70.8938C15.6318 71.4263 15.8608 71.9377 16.0976 72.4472C16.33 72.6255 16.5458 72.8243 16.7423 73.0413C17.262 73.6181 17.5776 74.3622 17.9549 75.3235C18.3148 76.2425 19.0808 78.242 19.4234 79.2071L20.3472 77.7575L20.5089 78.638C20.8149 80.2934 21.4962 82.5447 22.2795 83.9982C22.8916 85.1383 23.7192 86.1131 24.3408 87.232C24.9576 88.3155 25.3748 89.5006 25.5726 90.7312C26.9006 91.5754 28.1086 92.5946 29.164 93.7612C29.597 94.2207 30.159 95.5973 30.5555 96.6739H30.5632ZM36.5296 103.543C37.5997 104.46 38.6813 105.368 39.7784 106.25C40.9062 105.381 42.0167 104.489 43.1099 103.574C41.9689 103.404 40.8166 103.32 39.6629 103.322C38.615 103.334 37.5687 103.407 36.5296 103.543ZM49.0398 96.6528C49.0956 95.7492 49.1264 94.6629 49.7057 94.0015C50.285 93.3401 51.2165 93.8439 51.5033 93.5843C51.6169 93.4824 51.742 92.6768 51.7766 92.5077C51.9133 91.8098 52.1153 91.1292 52.5869 90.5754C53.0584 90.0217 53.7205 90.3005 54.2767 90.2774C54.1786 89.6372 54.1343 89.0085 54.2498 88.5644C54.3883 88.0319 54.9792 87.9184 55.1563 87.6031C55.3333 87.2878 54.8753 85.9035 54.9292 85.3979C54.9375 85.2582 54.9762 85.1219 55.0427 84.9987C55.1092 84.8755 55.2018 84.7683 55.3141 84.6846C55.7241 84.3962 56.1148 84.5269 56.5132 84.3981C56.8018 84.3058 56.5516 83.6195 57.1733 83.3138C57.2693 83.2604 57.378 83.2341 57.4878 83.2374C57.5975 83.2408 57.7044 83.2738 57.7969 83.333C57.8367 83.3725 57.8829 83.405 57.9335 83.4291L57.9489 83.4099C58.0492 83.2946 58.1751 83.2044 58.3165 83.1465L58.561 82.614C58.6729 82.2064 58.8204 81.8095 59.0017 81.4277C59.4733 80.378 59.9178 79.3128 60.3624 78.2516C60.9398 76.875 61.4961 75.4676 62.0946 74.1045C62.9126 72.2646 63.9923 71.7743 65.6302 71.0995C65.5961 70.8443 65.5961 70.5857 65.6302 70.3304C65.7919 69.6191 66.5174 69.5941 66.8408 69.15C67.0525 68.8577 66.7349 68.2713 66.6175 67.9964C66.2326 67.0716 65.8688 66.0969 66.1883 65.0933C66.223 64.8299 66.3173 64.5646 66.5887 64.4627C66.9332 64.3339 67.245 64.603 67.4394 64.5415C67.6337 64.48 67.7819 64.4127 67.9513 64.3492C67.9177 63.8659 68.0169 63.3827 68.2381 62.9515C68.6788 62.2017 69.6912 62.5132 69.9241 62.2055C70.0164 62.0844 69.9876 61.2673 69.9895 61.0962C69.9861 60.7622 70.0099 60.4285 70.0607 60.0984C69.9258 59.8643 69.8241 59.6125 69.7585 59.3505C69.6431 58.816 70.1204 58.4488 70.1435 58.0873C70.1666 57.7259 69.1311 56.6934 68.9502 56.2166C68.8952 56.0876 68.8691 55.9481 68.8737 55.808C68.8784 55.6678 68.9137 55.5304 68.9771 55.4053C69.1262 55.1639 69.3421 54.9709 69.5988 54.8497C69.5235 54.4216 69.5627 53.9812 69.7124 53.5731C69.9529 52.9963 70.563 52.9213 70.9557 52.804C70.98 52.608 70.98 52.4098 70.9557 52.2138C70.934 51.9051 70.9937 51.5962 71.1289 51.3178C70.6824 50.9641 70.3263 50.5084 69.899 50.1028C69.7369 49.9689 69.5845 49.8237 69.4429 49.6683C69.3698 49.5625 69.3043 49.426 69.2293 49.3126C68.7924 48.6512 69.2716 47.8283 69.8375 47.4265C69.9916 47.3217 70.1023 47.1645 70.1492 46.9843C70.1762 46.7247 69.8047 46.2153 69.6681 45.9922C69.5165 45.7643 69.3943 45.5182 69.3043 45.2597C69.2457 45.0219 69.2346 44.7748 69.2716 44.5327C69.3086 44.2906 69.393 44.0581 69.5199 43.8485C69.6743 43.5819 69.8862 43.353 70.1402 43.1785C70.3942 43.0039 70.684 42.888 70.9884 42.8392C71.0923 42.6584 71.0327 42.2509 71.3098 41.9894C71.512 41.7924 71.7801 41.6773 72.0623 41.6664C72.1374 41.6664 72.2721 41.676 72.3664 41.676C72.3702 41.6075 72.3702 41.5388 72.3664 41.4703C72.3649 41.0894 72.4505 40.7133 72.6166 40.3705C72.7995 39.9976 73.1036 39.2401 73.4712 39.0247C73.5347 36.5965 73.5616 34.1682 73.6367 31.7381C70.7112 31.2901 67.6241 30.0596 64.9527 28.8542C61.473 27.293 58.0798 25.4838 54.7155 23.6862C52.7543 22.6384 50.795 21.5829 48.8184 20.5601L47.7079 21.5521L48.726 26.2106C49.5883 26.6694 50.4499 27.127 51.3108 27.5833C54.1689 29.0945 57.0405 30.5845 59.9563 31.9822C62.4122 33.1589 64.9104 34.2894 67.4855 35.1814L68.6038 35.566L68.5402 36.7445C68.1149 44.6676 67.3489 52.6617 65.2106 60.3272C61.3517 74.1795 53.8494 85.469 44.1454 95.6799C44.9242 95.785 45.7063 95.9171 46.4915 96.076C47.3442 96.2471 48.1891 96.4452 49.034 96.6528H49.0398Z" fill="#DA2223"/>
<path fill-rule="evenodd" clip-rule="evenodd" d="M12.9891 36.9004C13.5665 44.5466 13.9977 52.5696 16.0686 59.9716C19.7639 73.1626 28.0495 86.0364 38.1404 95.4629C38.6716 95.4302 39.2047 95.409 39.7378 95.4033C40.3999 95.3956 41.0549 95.4103 41.7029 95.4475C51.711 85.1577 59.45 73.849 63.3667 59.8102C65.4376 52.387 66.194 44.5889 66.6135 36.9139C64.0655 35.9843 61.5695 34.9183 59.1363 33.7204C56.1993 32.3112 53.3027 30.8077 50.4215 29.285L49.2821 28.6813L50.3869 33.7224L39.6801 27.3989L28.9887 33.7224L30.0915 28.6986C29.3999 29.0729 28.7071 29.4439 28.0129 29.8118C23.132 32.4015 18.126 34.874 12.9814 36.9004H12.9891Z" fill="#DA2223"/>
<path fill-rule="evenodd" clip-rule="evenodd" d="M12.9892 36.9005C13.5666 44.5466 13.9977 52.5697 16.0687 59.9717C17.7316 65.9144 20.3279 71.7938 23.6017 77.3212V32.0978C20.1277 33.8435 16.5922 35.4816 12.9873 36.9043L12.9892 36.9005ZM34.4836 91.8196C35.6692 93.0834 36.885 94.2978 38.1308 95.4629C38.662 95.4302 39.1952 95.4091 39.7283 95.4033C40.3904 95.3956 41.0454 95.4104 41.6934 95.4475C42.7878 94.3222 43.8541 93.1846 44.8921 92.0349V30.477L39.6956 27.4009L34.499 30.477V91.8196H34.4836ZM55.7779 77.4481C59.0745 71.9302 61.622 65.9989 63.3533 59.8102C65.4242 52.387 66.1806 44.5889 66.6002 36.9139C64.0521 35.9844 61.5561 34.9183 59.1229 33.7205C58.0015 33.1821 56.8846 32.6316 55.7721 32.069V77.4481H55.7779Z" fill="#3F3487"/>
<path fill-rule="evenodd" clip-rule="evenodd" d="M31.2393 23.5L21.2716 28.6295C19.6856 29.4331 18.094 30.2253 16.4811 30.9732C14.237 32.0114 11.862 33.0284 9.47157 33.6898L9.29643 33.7379L9.2002 33.3899L9.37534 33.3418C11.7407 32.6862 14.1023 31.6749 16.3291 30.6502C17.9381 29.9061 19.5259 29.1121 21.106 28.3123L31.3394 23.0386L31.2393 23.4962V23.5Z" fill="#F6CB00"/>
<path fill-rule="evenodd" clip-rule="evenodd" d="M47.998 22.8612L58.5836 28.306C60.1656 29.1078 61.7535 29.8999 63.3625 30.6439C65.5874 31.6744 67.9508 32.6857 70.3162 33.3356L70.4914 33.3836L70.3932 33.7316L70.22 33.6836C67.8353 33.0222 65.4546 32.0051 63.2104 30.9669C61.5976 30.219 60.0059 29.4288 58.42 28.6233L48.0981 23.313L47.998 22.8555V22.8612Z" fill="#F6CB00"/>
<path fill-rule="evenodd" clip-rule="evenodd" d="M8.69387 34.3934C8.71696 38.5174 9.07879 42.6068 9.46372 46.6981C9.34824 46.7532 9.23276 46.8128 9.11729 46.8769C8.73236 42.7183 8.34743 38.5712 8.33203 34.3799V34.1992H8.69387V34.3799V34.3934Z" fill="#F6CB00"/>
<path fill-rule="evenodd" clip-rule="evenodd" d="M71.3329 34.3955C71.3156 37.2198 71.1405 40.0268 70.9076 42.8338C70.7806 42.8606 70.6563 42.8985 70.5361 42.9473C70.7729 40.1018 70.9538 37.2564 70.9711 34.3936V34.2129H71.3329V34.3936V34.3955Z" fill="#F6CB00"/>
<path fill-rule="evenodd" clip-rule="evenodd" d="M67.1802 63.9899L67.0108 64.4513C66.8862 64.4116 66.753 64.4069 66.6259 64.4378L66.8183 63.861L66.8761 63.6899L67.2187 63.8072L67.159 63.9783L67.1802 63.9899ZM66.1928 66.793C65.5885 68.4541 64.9495 70.1057 64.2566 71.7303C64.072 71.8272 63.8934 71.9351 63.7216 72.0533C64.58 70.0845 65.3518 68.0773 66.0754 66.0567C66.0906 66.3053 66.1299 66.5519 66.1928 66.793ZM58.8118 81.8662C58.4949 82.3789 58.1741 82.8839 57.8495 83.3812L57.8014 83.3389C57.7182 83.2724 57.6133 83.2389 57.5069 83.2447C58.3461 81.972 59.1461 80.6748 59.907 79.3534C59.6125 80.0494 59.3161 80.7453 59.0062 81.4336C58.9408 81.5778 58.8773 81.722 58.8138 81.8662H58.8118ZM55.1781 87.1572C52.7982 90.3348 50.2555 93.3875 47.5604 96.303L47.1523 96.2146C49.9718 93.1742 52.6246 89.9838 55.0992 86.6573C55.1319 86.8361 55.1608 87.0073 55.1781 87.1572Z" fill="#F6CB00"/>
<path fill-rule="evenodd" clip-rule="evenodd" d="M13.1201 64.8784L13.2337 65.1995L13.1394 65.2783C13.1394 65.1457 13.1278 65.0111 13.1201 64.8784ZM19.0499 78.1867C19.2103 78.4699 19.3707 78.7519 19.5311 79.0326L19.4233 79.2018C19.3271 78.9288 19.1962 78.575 19.0499 78.1867ZM21.5693 82.4029C22.2352 83.4437 22.9281 84.4691 23.6479 85.4791C26.3693 89.2457 29.3202 92.8414 32.4839 96.2457L32.0721 96.3303C28.9524 92.9611 26.0408 89.4054 23.3534 85.6829L23.2919 85.5983C22.9262 85.0814 22.5883 84.5455 22.2795 83.9929C22.0083 83.479 21.771 82.9478 21.5693 82.4029Z" fill="#F6CB00"/>
<path fill-rule="evenodd" clip-rule="evenodd" d="M8.72801 32.4702C9.02188 32.4702 9.30915 32.5573 9.55349 32.7204C9.79784 32.8834 9.98828 33.1153 10.1007 33.3865C10.2132 33.6577 10.2426 33.9561 10.1853 34.244C10.128 34.5319 9.98645 34.7964 9.77865 35.004C9.57085 35.2116 9.3061 35.3529 9.01788 35.4102C8.72966 35.4675 8.43091 35.4381 8.15941 35.3257C7.88791 35.2134 7.65586 35.0232 7.49259 34.7791C7.32933 34.535 7.24219 34.248 7.24219 33.9545C7.24219 33.5608 7.39873 33.1833 7.67737 32.9049C7.95602 32.6266 8.33395 32.4702 8.72801 32.4702Z" fill="#1D1D1B"/>
<path fill-rule="evenodd" clip-rule="evenodd" d="M8.72848 32.8325C8.95079 32.8325 9.1681 32.8984 9.35294 33.0217C9.53778 33.1451 9.68184 33.3205 9.76692 33.5256C9.85199 33.7308 9.87425 33.9566 9.83088 34.1744C9.78751 34.3922 9.68046 34.5922 9.52327 34.7493C9.36607 34.9063 9.1658 35.0132 8.94776 35.0565C8.72973 35.0999 8.50373 35.0776 8.29835 34.9927C8.09297 34.9077 7.91743 34.7638 7.79392 34.5791C7.67041 34.3945 7.60449 34.1774 7.60449 33.9553C7.60449 33.6575 7.72291 33.3719 7.9337 33.1614C8.14449 32.9508 8.43038 32.8325 8.72848 32.8325Z" fill="#F6CB00"/>
<path fill-rule="evenodd" clip-rule="evenodd" d="M21.1255 27.0088C21.419 27.0088 21.7059 27.0957 21.9499 27.2586C22.1939 27.4215 22.3841 27.653 22.4964 27.9239C22.6088 28.1947 22.6381 28.4928 22.5809 28.7803C22.5236 29.0678 22.3823 29.332 22.1748 29.5393C21.9672 29.7466 21.7028 29.8878 21.415 29.945C21.1271 30.0022 20.8288 29.9728 20.5576 29.8606C20.2865 29.7484 20.0547 29.5584 19.8917 29.3147C19.7286 29.0709 19.6416 28.7843 19.6416 28.4911C19.6421 28.0981 19.7986 27.7214 20.0768 27.4435C20.355 27.1656 20.7321 27.0093 21.1255 27.0088Z" fill="#1D1D1B"/>
<path fill-rule="evenodd" clip-rule="evenodd" d="M21.126 27.3682C21.3484 27.3678 21.5659 27.4333 21.751 27.5565C21.936 27.6796 22.0804 27.8548 22.1658 28.06C22.2511 28.2651 22.2737 28.4909 22.2305 28.7088C22.1874 28.9268 22.0805 29.127 21.9234 29.2842C21.7662 29.4414 21.566 29.5486 21.3479 29.592C21.1298 29.6355 20.9037 29.6134 20.6982 29.5285C20.4927 29.4436 20.3171 29.2996 20.1935 29.115C20.0699 28.9303 20.0039 28.7131 20.0039 28.491C20.0044 28.1937 20.1227 27.9087 20.333 27.6983C20.5433 27.4879 20.8284 27.3692 21.126 27.3682Z" fill="#F6CB00"/>
<path fill-rule="evenodd" clip-rule="evenodd" d="M70.937 32.4702C71.231 32.4698 71.5184 32.5566 71.763 32.7194C72.0076 32.8823 72.1984 33.114 72.3111 33.3851C72.4239 33.6563 72.4536 33.9548 72.3965 34.2428C72.3393 34.5309 72.198 34.7955 71.9903 35.0033C71.7825 35.2111 71.5178 35.3526 71.2295 35.4101C70.9413 35.4675 70.6424 35.4382 70.3708 35.3259C70.0992 35.2136 69.867 35.0234 69.7037 34.7793C69.5403 34.5351 69.4531 34.2481 69.4531 33.9545C69.4531 33.5612 69.6094 33.1839 69.8876 32.9056C70.1659 32.6273 70.5433 32.4707 70.937 32.4702Z" fill="#1D1D1B"/>
<path fill-rule="evenodd" clip-rule="evenodd" d="M70.9355 32.8325C71.1578 32.8325 71.3751 32.8984 71.56 33.0217C71.7448 33.1451 71.8889 33.3205 71.974 33.5256C72.059 33.7308 72.0813 33.9566 72.0379 34.1744C71.9945 34.3922 71.8875 34.5922 71.7303 34.7493C71.5731 34.9063 71.3728 35.0132 71.1548 35.0565C70.9368 35.0999 70.7108 35.0776 70.5054 34.9927C70.3 34.9077 70.1245 34.7638 70.001 34.5791C69.8774 34.3945 69.8115 34.1774 69.8115 33.9553C69.8115 33.6575 69.9299 33.3719 70.1407 33.1614C70.3515 32.9508 70.6374 32.8325 70.9355 32.8325Z" fill="#F6CB00"/>
<path fill-rule="evenodd" clip-rule="evenodd" d="M58.5093 27.0088C58.8027 27.0092 59.0894 27.0964 59.3332 27.2595C59.5769 27.4227 59.7668 27.6543 59.8788 27.9252C59.9909 28.1961 60.02 28.4941 59.9625 28.7815C59.905 29.0689 59.7635 29.3328 59.5559 29.54C59.3483 29.7471 59.0839 29.8881 58.7961 29.9451C58.5083 30.0021 58.2101 29.9727 57.939 29.8604C57.668 29.7482 57.4364 29.5582 57.2734 29.3145C57.1104 29.0707 57.0234 28.7842 57.0234 28.4911C57.0234 28.2963 57.0619 28.1034 57.1366 27.9234C57.2113 27.7434 57.3207 27.5799 57.4587 27.4423C57.5967 27.3046 57.7606 27.1955 57.9408 27.1211C58.1211 27.0467 58.3142 27.0085 58.5093 27.0088Z" fill="#1D1D1B"/>
<path fill-rule="evenodd" clip-rule="evenodd" d="M58.5088 27.3682C58.7311 27.3682 58.9484 27.434 59.1332 27.5574C59.3181 27.6808 59.4621 27.8561 59.5472 28.0613C59.6323 28.2664 59.6545 28.4922 59.6112 28.71C59.5678 28.9278 59.4607 29.1279 59.3035 29.2849C59.1463 29.4419 58.9461 29.5489 58.728 29.5922C58.51 29.6355 58.284 29.6133 58.0786 29.5283C57.8732 29.4433 57.6977 29.2994 57.5742 29.1148C57.4507 28.9301 57.3848 28.713 57.3848 28.491C57.3848 28.3435 57.4138 28.1975 57.4703 28.0613C57.5268 27.9251 57.6096 27.8013 57.714 27.697C57.8184 27.5928 57.9423 27.5101 58.0786 27.4536C58.215 27.3972 58.3612 27.3682 58.5088 27.3682Z" fill="#F6CB00"/>
<path fill-rule="evenodd" clip-rule="evenodd" d="M18.6944 36.6197L25.2709 35.1239L25.8887 37.1042L29.0355 34.5183L36.0219 34.0107L40.6257 37.4964L40.2735 54.4672L40.5776 59.1238L36.684 63.0978L28.6044 63.4631L26.8318 61.9481L26.5277 66.9315L18.6944 67.714L16.5118 64.9396L12.6626 65.7029L5.43359 62.1307L12.5894 38.0424L18.6944 36.6197Z" fill="#1D1D1B"/>
<path fill-rule="evenodd" clip-rule="evenodd" d="M13.431 54.5423L15.4114 54.2443L19.2992 37.2235L24.5862 36.0218L21.653 53.3964L22.6365 53.333L24.9365 38.8462L29.2227 35.2547L35.7992 34.7529L39.6658 37.7483L39.66 43.495L33.4222 43.5277L33.4896 39.5979L30.9067 39.7171L29.469 52.8042L33.1566 52.6485L33.4954 46.7577L39.71 46.5539L39.558 54.1116L34.8888 57.7915L26.3415 58.3586L23.2755 55.7766L22.3305 62.9094L16.1043 63.4035L16.6701 59.4776L6.45605 61.2252L13.1269 38.5962L17.6921 37.5926L13.431 54.5423Z" fill="#F6CB00"/>
<path fill-rule="evenodd" clip-rule="evenodd" d="M13.5528 39.0635L7.2207 60.5428L17.3116 58.8183L16.7361 62.8096L21.8499 62.4039L22.8661 54.725L26.5229 57.8031L34.6854 57.2629L39.0197 53.8464L39.1544 47.1135L34.0079 47.2827L33.6691 53.1697L28.8595 53.3715L30.4184 39.1981L34.0752 39.0289L34.0079 42.8857H39.087L39.1197 38.0811L35.5996 35.376L29.3676 35.8489L25.4394 39.1308L23.1029 53.8464L21.0031 53.981L23.9151 36.7295L19.7501 37.6754L15.8566 54.725L12.7059 55.198L16.9055 38.3868L13.5528 39.0635Z" fill="white"/>
<path fill-rule="evenodd" clip-rule="evenodd" d="M47.6128 39.0226L49.5451 34.3218L56.7548 35.61L55.9291 37.9786L58.2945 36.0079L66.9766 38.4362L74.5462 62.3091L68.4008 65.8256L59.0394 64.3529L49.9031 63.3685L48.5096 60.9383L48.2248 63.2916L39.3291 63.032L39.6678 33.9238L47.2875 34.2257L47.6128 39.0226Z" fill="#1D1D1B"/>
<path fill-rule="evenodd" clip-rule="evenodd" d="M47.1021 42.1667L49.9891 35.1377L55.79 36.1721L52.5508 45.4601L58.4248 55.0001L55.5628 39.2213L58.4633 36.8065L66.4024 39.0271L73.4774 61.3293L67.8652 60.1123L66.7604 55.6615L64.7434 55.4865L65.5652 59.8297L59.6104 58.9414L53.1147 58.3762L47.6295 48.8785L48.2069 58.0205L40.7277 57.8609L40.4082 34.6763L46.6094 34.9224L47.1021 42.1667ZM61.3021 41.5899L63.3346 50.0359L65.5517 50.3416L63.0689 42.0975L61.3021 41.5899Z" fill="#F6CB00"/>
<path fill-rule="evenodd" clip-rule="evenodd" d="M40.9502 35.2388L41.2543 57.3295L47.621 57.464L46.9435 46.6052L53.445 57.8697L59.677 58.4138L64.8928 59.1829L64.0806 54.8858L67.2023 55.1646L68.3186 59.6635L72.6876 60.6113L65.9821 39.4627L58.5992 37.3998L56.1549 39.4339L59.473 57.7351L51.9553 45.5324L55.0771 36.5923L50.3348 35.7463L46.7799 44.746L46.1025 35.4426L40.956 35.2388H40.9502ZM60.5565 40.8143L62.893 50.5311L66.3131 51.006L63.5032 41.6699L60.5565 40.8239V40.8143Z" fill="white"/>
<path fill-rule="evenodd" clip-rule="evenodd" d="M39.7977 64.2417C42.2538 64.2413 44.6548 64.9685 46.6972 66.3313C48.7395 67.6941 50.3315 69.6313 51.2716 71.8979C52.2118 74.1646 52.458 76.6588 51.9791 79.0652C51.5001 81.4716 50.3176 83.682 48.581 85.417C46.8444 87.1521 44.6318 88.3337 42.2229 88.8125C39.8141 89.2913 37.3172 89.0457 35.048 88.1069C32.7788 87.1681 30.8393 85.5781 29.4747 83.5382C28.1102 81.4982 27.3818 79.0998 27.3818 76.6463C27.3818 73.3567 28.6899 70.2019 31.0182 67.8756C33.3466 65.5493 36.5046 64.2422 39.7977 64.2417Z" fill="white"/>
<path fill-rule="evenodd" clip-rule="evenodd" d="M39.797 64.061C42.2889 64.0607 44.7249 64.7984 46.797 66.1811C48.8691 67.5638 50.4842 69.5292 51.438 71.8288C52.3919 74.1285 52.6417 76.659 52.1558 79.1005C51.6699 81.5419 50.4701 83.7846 48.7082 85.5449C46.9463 87.3052 44.7015 88.504 42.2575 88.9898C39.8135 89.4755 37.2803 89.2264 34.978 88.2739C32.6758 87.3214 30.708 85.7083 29.3236 83.6386C27.9391 81.5689 27.2002 79.1356 27.2002 76.6464C27.2002 73.3089 28.5273 70.108 30.8896 67.7479C33.2519 65.3877 36.4559 64.0615 39.797 64.061ZM48.5329 73.9567L44.0158 75.5543C43.8356 77.1799 43.3213 78.7508 42.505 80.1686L45.2841 83.985C46.5774 83.9175 47.8211 83.4663 48.8563 82.6891C49.9767 81.02 50.6092 79.0719 50.6828 77.0636C50.3061 75.8303 49.5548 74.7445 48.5329 73.9567ZM43.9138 75.2679L48.4155 73.676C48.7843 72.4437 48.7601 71.1274 48.3462 69.9096C47.1028 68.334 45.4486 67.1312 43.5654 66.4335C42.2759 66.4097 41.0106 66.7851 39.9433 67.5083V72.4109C41.4509 73.0777 42.803 74.0507 43.9138 75.2679ZM45.0031 84.1119L42.2259 80.2936C40.668 80.6089 39.0626 80.6089 37.5047 80.2936L34.7005 84.2599C35.1516 85.4362 35.9505 86.4474 36.9909 87.1592C37.9044 87.4025 38.8458 87.5253 39.7912 87.5245C40.7942 87.527 41.7928 87.3918 42.759 87.1226C43.9003 86.2844 44.6413 85.2827 45.0128 84.1215L45.0031 84.1119ZM34.5004 84.0157L37.2545 80.1398C36.4365 78.7124 35.9252 77.1305 35.7533 75.4947L31.0841 73.9797C30.0553 74.7612 29.2963 75.844 28.9131 77.0771C28.9889 79.1381 29.6527 81.1346 30.8262 82.8314C32.006 83.6504 33.2686 84.0599 34.5004 84.0311V84.0157ZM31.1457 73.6798L35.8957 75.2179C36.9537 74.0697 38.2285 73.1419 39.6469 72.4878V67.5429C38.5839 66.8053 37.3168 66.4181 36.0228 66.4354C34.1404 67.1337 32.487 68.3363 31.2439 69.9115C30.8245 71.1279 30.7915 72.444 31.1496 73.6798H31.1457ZM48.5195 69.6423C49.1658 69.8041 49.78 70.0739 50.3363 70.4402C49.4909 69.0112 48.3635 67.7688 47.0225 66.7885C45.6815 65.8082 44.155 65.1105 42.5357 64.7378C43.0319 65.1675 43.4653 65.6645 43.8233 66.2144C45.6625 66.926 47.282 68.1082 48.5195 69.6423ZM51.9838 75.5755C51.7295 76.1803 51.3906 76.7461 50.9772 77.2559C50.8739 79.2236 50.2489 81.1286 49.1661 82.7756C49.2135 83.4368 49.1485 84.1011 48.9737 84.7405C50.9501 82.5107 52.0396 79.6343 52.0358 76.656C52.0358 76.2926 52.0185 75.9312 51.9877 75.5774L51.9838 75.5755ZM44.5913 87.9013C43.9366 87.8398 43.2938 87.6865 42.682 87.4456C40.828 87.9381 38.8786 87.9481 37.0197 87.4745C36.4076 87.7296 35.7571 87.881 35.0951 87.9224C36.6021 88.5479 38.2188 88.8669 39.8507 88.8606C41.4826 88.8543 43.0968 88.523 44.599 87.8859L44.5913 87.9013ZM30.6857 84.8117C30.5299 84.1755 30.4651 83.5204 30.4933 82.866C29.3637 81.1838 28.7155 79.2253 28.6187 77.202C28.1928 76.6925 27.8552 76.1154 27.6198 75.4947C27.5851 75.8793 27.5659 76.2638 27.5659 76.6483C27.5619 79.6601 28.6755 82.5665 30.6915 84.8059L30.6857 84.8117ZM29.3 70.3691C29.8633 70.0293 30.4717 69.7704 31.1072 69.6001C32.3536 68.0676 33.9828 66.8911 35.8303 66.1894C36.1845 65.6268 36.6308 65.1276 37.1506 64.7128C35.5289 65.0744 33.9978 65.7617 32.6502 66.7327C31.3026 67.7037 30.1667 68.9383 29.3115 70.3614L29.3 70.3691Z" fill="#1D1D1B"/>
<path d="M40.15 101.673V100.936H40.7139C41.0584 100.936 41.3586 100.786 41.3586 100.3V98.6868C41.3586 98.2715 40.9737 98.0754 40.6215 98.0754H40.1442V97.3506H39.4879V98.0754H39.001C38.6584 98.0754 38.2734 98.2677 38.2734 98.6868V100.315C38.2734 100.79 38.5987 100.938 38.9471 100.938H39.4879V101.673H40.15ZM40.15 100.55V98.458H40.3886C40.5638 98.458 40.6908 98.4753 40.6908 98.7637V100.317C40.6939 100.348 40.69 100.38 40.6792 100.41C40.6684 100.439 40.6511 100.466 40.6285 100.488C40.606 100.51 40.5787 100.527 40.5489 100.537C40.519 100.547 40.4873 100.55 40.456 100.546L40.15 100.55ZM39.4879 98.458V100.546H39.1992C39.1661 100.55 39.1325 100.547 39.1006 100.537C39.0688 100.527 39.0393 100.511 39.0142 100.489C38.9892 100.467 38.969 100.44 38.9551 100.41C38.9412 100.379 38.9339 100.347 38.9336 100.313V98.731C38.9336 98.5214 39.0394 98.458 39.2011 98.458H39.4879Z" fill="#F6CB00"/>
<path fill-rule="evenodd" clip-rule="evenodd" d="M9.00293 72.002C9.14426 71.991 9.27914 71.9384 9.3905 71.8507C9.50185 71.7631 9.58466 71.6444 9.62844 71.5098L10.0634 71.5732L11.147 75.8895L10.458 75.7972L9.63036 72.3961H9.09916L9.00293 71.9962V72.002Z" fill="#F6CB00"/>
<path fill-rule="evenodd" clip-rule="evenodd" d="M69.0005 72.2324C69.3945 72.1192 69.7313 71.8617 69.9436 71.5114L70.3728 71.4287L69.0929 75.7065L68.4424 75.8392L69.3835 72.5496L68.8677 72.6688L69.0005 72.2324Z" fill="#F6CB00"/>
<path fill-rule="evenodd" clip-rule="evenodd" d="M66.0716 73.3276C66.4665 73.2142 66.8044 72.9569 67.0185 72.6066L67.4458 72.5239L66.1447 76.8017L65.4961 76.9344L66.4584 73.6448L65.9426 73.764L66.0773 73.3276H66.0716Z" fill="#F6CB00"/>
<path fill-rule="evenodd" clip-rule="evenodd" d="M13.9779 73.6318L14.6611 76.2792C14.8112 76.856 14.4994 77.0598 14.1357 77.0194L13.8566 76.9887C13.3177 76.9271 12.977 76.3984 12.9135 76.1446L12.8231 75.7736L13.4851 75.912L13.5756 76.2735C13.5988 76.3468 13.6408 76.4128 13.6976 76.4648C13.7543 76.5167 13.8238 76.5529 13.8989 76.5695C14.024 76.5907 14.128 76.5484 14.076 76.3331L13.8335 75.3718C13.7066 75.3983 13.5755 75.3983 13.4486 75.3718C12.8885 75.3006 12.6576 75.0219 12.5305 74.4816L12.2361 73.2338C12.1033 72.6724 12.4016 72.5129 12.8134 72.5494L12.9963 72.5648C13.5737 72.6128 13.8412 73.0743 13.9836 73.6241L13.9779 73.6318ZM13.6795 74.8084L13.2734 73.3127C13.2619 73.2369 13.2266 73.1666 13.1727 73.1121C13.1187 73.0575 13.0489 73.0214 12.9732 73.0089C12.7576 72.9762 12.8058 73.1685 12.8365 73.2838L13.208 74.7258C13.2226 74.7906 13.256 74.8497 13.3038 74.8958C13.3517 74.9419 13.4121 74.9731 13.4775 74.9853C13.566 75.0007 13.7488 75.0622 13.6795 74.8084Z" fill="#F6CB00"/>
<path fill-rule="evenodd" clip-rule="evenodd" d="M36.2111 97.668L36.8905 101.867L36.2207 101.927L35.6125 98.1679L34.8484 98.2351L35.4604 102.002L34.7887 102.061L34.1074 97.8525L36.2111 97.668Z" fill="#F6CB00"/>
<path fill-rule="evenodd" clip-rule="evenodd" d="M44.0536 97.6204L43.3819 97.5454L42.7891 101.817L43.4608 101.89L43.7687 99.666L44.2768 101.969L44.9485 102.044L44.4192 99.6968L45.5663 97.8242L44.8946 97.7492L43.7764 99.618L44.0536 97.6204Z" fill="#F6CB00"/>
</svg>
