<svg class="logo" width="15" height="16" viewBox="0 0 15 16" fill="none" xmlns="http://www.w3.org/2000/svg">
<path opacity="0.6" fill-rule="evenodd" clip-rule="evenodd" d="M14.6132 2.59081C14.7978 3.06569 14.9267 3.61373 14.9619 4.41089C14.997 5.21103 15 5.46599 15 7.50292C15 9.53984 14.9912 9.7948 14.956 10.5949C14.9209 11.3921 14.7919 11.9373 14.6073 12.415C14.2175 13.4232 13.4203 14.2204 12.4121 14.6102C11.9373 14.7948 11.3892 14.9237 10.5921 14.9589C9.79194 14.9942 9.53698 15.0029 7.50006 15.0029C5.46313 15.0029 5.20806 14.9942 4.40803 14.9589C3.61076 14.9237 3.06569 14.7948 2.58794 14.6102C2.0897 14.4226 1.63542 14.1266 1.26026 13.7456C0.879248 13.3704 0.583303 12.9191 0.3928 12.415C0.208135 11.9401 0.0791095 11.3921 0.0439624 10.5949C0.00881537 9.7948 0 9.53984 0 7.50292C0 5.46599 0.00881537 5.21103 0.046939 4.40792C0.0820861 3.61076 0.210997 3.06569 0.395662 2.58794C0.583303 2.0897 0.879248 1.63542 1.26026 1.26026C1.63542 0.876272 2.08673 0.583189 2.59092 0.392685C3.06569 0.208135 3.61373 0.0791094 4.4109 0.0439624C5.21103 0.00881537 5.46599 0 7.50292 0C9.53984 0 9.7948 0.00881537 10.5979 0.046939C11.3951 0.0820861 11.9403 0.210997 12.4179 0.395662C12.9161 0.583189 13.3704 0.879248 13.7456 1.26026C14.1296 1.63542 14.4226 2.08673 14.6132 2.59081ZM13.3529 11.9285C13.4555 11.6647 13.5785 11.269 13.6108 10.5363C13.646 9.745 13.6548 9.51053 13.6548 7.50876C13.6548 5.50698 13.646 5.26965 13.6108 4.47833C13.5785 3.74848 13.4555 3.34996 13.3529 3.08618C13.2327 2.76082 13.0422 2.46773 12.7931 2.22445C12.5528 1.97533 12.2567 1.78483 11.9314 1.66473C11.6677 1.56215 11.272 1.43908 10.5393 1.4068C9.75084 1.37165 9.51351 1.36283 7.50876 1.36283C5.50709 1.36283 5.26965 1.37165 4.47833 1.4068C3.7486 1.43908 3.34996 1.56215 3.08618 1.66473C2.76082 1.78483 2.46773 1.97533 2.22457 2.22445C1.97247 2.46487 1.78197 2.76082 1.66176 3.08618C1.55918 3.34996 1.43611 3.74562 1.40394 4.47833C1.36867 5.26667 1.35997 5.50698 1.35997 7.50876C1.35997 9.51053 1.36867 9.74798 1.40394 10.5393C1.43611 11.269 1.55918 11.6677 1.66176 11.9314C1.78197 12.2567 1.97247 12.5498 2.22159 12.7931C2.4619 13.0422 2.75795 13.2327 3.08321 13.3529C3.34698 13.4555 3.74264 13.5785 4.47535 13.6107C5.26381 13.646 5.50412 13.6547 7.5059 13.6547C9.50767 13.6547 9.745 13.646 10.5363 13.6107C11.2662 13.5785 11.6647 13.4555 11.9285 13.3529C12.5821 13.1008 13.1008 12.5821 13.3529 11.9285ZM3.64882 7.50286C3.64882 5.37503 5.37515 3.64882 7.50286 3.64882C9.63069 3.64882 11.3569 5.37503 11.3569 7.50286C11.3569 9.63069 9.63069 11.3569 7.50286 11.3569C5.37515 11.3569 3.64882 9.63069 3.64882 7.50286ZM5.00284 7.50286C5.00284 8.88333 6.12251 10.0029 7.50286 10.0029C8.88333 10.0029 10.0029 8.88333 10.0029 7.50286C10.0029 6.12239 8.88333 5.00284 7.50286 5.00284C6.12251 5.00284 5.00284 6.12239 5.00284 7.50286Z" fill="white"/>
</svg>
