<svg class="logo" width="20" height="12" viewBox="0 0 20 12" fill="none" xmlns="http://www.w3.org/2000/svg">
<path opacity="0.6" d="M15.9368 6.73429C15.6458 6.38429 15.729 6.22857 15.9368 5.91571C15.9405 5.91214 18.3429 2.75071 18.5904 1.67857L18.5919 1.67786C18.7149 1.28714 18.5919 1 17.9971 1H16.029C15.528 1 15.297 1.24643 15.1732 1.52214C15.1732 1.52214 14.1712 3.80643 12.7537 5.28714C12.2961 5.715 12.0846 5.85214 11.8349 5.85214C11.7119 5.85214 11.5206 5.715 11.5206 5.32429V1.67786C11.5206 1.20929 11.3804 1 10.9656 1H7.87099C7.55673 1 7.36997 1.21857 7.36997 1.42214C7.36997 1.86643 8.07875 1.96857 8.15225 3.21857V5.93071C8.15225 6.525 8.03899 6.63429 7.78774 6.63429C7.11871 6.63429 5.49491 4.34071 4.53262 1.71571C4.33837 1.20643 4.14861 1.00071 3.64384 1.00071H1.67502C1.11325 1.00071 1 1.24714 1 1.52286C1 2.01 1.66902 4.43214 4.11111 7.63214C5.73866 9.81643 8.03074 11 10.1158 11C11.3691 11 11.5221 10.7371 11.5221 10.285C11.5221 8.19786 11.4089 8.00071 12.0366 8.00071C12.3276 8.00071 12.8287 8.13786 13.9987 9.19143C15.336 10.4407 15.5558 11 16.3043 11H18.2723C18.8334 11 19.1176 10.7371 18.9541 10.2186C18.5799 9.12786 16.0508 6.88429 15.9368 6.73429V6.73429Z" stroke="white" stroke-width="1.1"/>
</svg>
